<?xml version="1.0" standalone="no"?><!DOCTYPE svg PUBLIC "-//W3C//DTD SVG 1.1//EN" "http://www.w3.org/Graphics/SVG/1.1/DTD/svg11.dtd"><svg t="1565581539176" class="icon" viewBox="0 0 10137 1024" version="1.1" xmlns="http://www.w3.org/2000/svg" p-id="5258" xmlns:xlink="http://www.w3.org/1999/xlink" width="1979.8828125" height="200"><defs><style type="text/css"></style></defs><path d="M102.4 0v1024H0V0zM307.2 0v1024H204.8V0zM512 0v1024H409.6V0zM716.8 0v1024H614.4V0zM921.6 0v1024H819.2V0zM1126.4 0v1024h-102.4V0zM1331.2 0v1024h-102.4V0zM1536 0v1024h-102.4V0zM1740.8 0v1024h-102.4V0zM1945.6 0v1024h-102.4V0zM2150.4 0v1024h-102.4V0zM2355.2 0v1024h-102.4V0zM2560 0v1024h-102.4V0zM2764.8 0v1024h-102.4V0zM2969.6 0v1024h-102.4V0zM3174.4 0v1024h-102.4V0zM3379.2 0v1024h-102.4V0zM3584 0v1024h-102.4V0zM3788.8 0v1024h-102.4V0zM3993.6 0v1024h-102.4V0zM4198.4 0v1024h-102.4V0zM4403.2 0v1024h-102.4V0zM4608 0v1024h-102.4V0zM4812.8 0v1024h-102.4V0zM5017.6 0v1024h-102.4V0zM5222.4 0v1024h-102.4V0zM5427.2 0v1024h-102.4V0zM5632 0v1024h-102.4V0zM5836.8 0v1024h-102.4V0zM6041.6 0v1024h-102.4V0zM6246.4 0v1024h-102.4V0zM6451.2 0v1024h-102.4V0zM6656 0v1024h-102.4V0zM6860.8 0v1024h-102.4V0zM7065.6 0v1024h-102.4V0zM7270.4 0v1024h-102.4V0zM7475.2 0v1024h-102.4V0zM7680 0v1024h-102.4V0zM7884.8 0v1024h-102.4V0zM8089.6 0v1024h-102.4V0zM8294.4 0v1024h-102.4V0zM8499.2 0v1024h-102.4V0zM8704 0v1024h-102.4V0zM8908.8 0v1024h-102.4V0zM9113.6 0v1024h-102.4V0zM9318.4 0v1024h-102.4V0zM9523.2 0v1024h-102.4V0zM9728 0v1024h-102.4V0zM9932.8 0v1024h-102.4V0zM10137.6 0v1024h-102.4V0z" p-id="5259"></path></svg>