<?xml version="1.0" encoding="utf-8"?>
<!-- Generator: Adobe Illustrator 22.1.0, SVG Export Plug-In . SVG Version: 6.00 Build 0)  -->
<svg version="1.1" id="图层_1" xmlns="http://www.w3.org/2000/svg" xmlns:xlink="http://www.w3.org/1999/xlink" x="0px" y="0px"
	 viewBox="0 0 423 341" style="enable-background:new 0 0 423 341;" xml:space="preserve">
<style type="text/css">
	.st0{opacity:0.6;}
	.st1{fill:#A3B1BF;}
	.st2{fill:#F5F5F5;}
	.st3{fill:none;}
	.st4{fill:#F0F2F5;}
	.st5{opacity:0.8;}
	.st6{fill:#FFFFFF;}
	.st7{fill:#B2BECA;}
	.st8{opacity:0.35;}
	.st9{opacity:0.85;enable-background:new    ;}
	.st10{opacity:0.4;}
	.st11{opacity:0.66;}
	.st12{fill:#FAFAFA;}
</style>
<title>Group 6</title>
<desc>Created with Sketch.</desc>
<g id="Page-1">
	<g id="_x34_04" transform="translate(-418.000000, -279.000000)">
		<g id="Group-6" transform="translate(398.000000, 280.000000)">
			<g id="Group-5" transform="translate(75.417348, 0.163879)" class="st0">
				<g id="Stroke-1">
					<path class="st1" d="M169.6,289.7c-4.1,0-8.2-0.2-12.2-0.6l0.2-1.6c4,0.4,8,0.6,12,0.6V289.7z M178.7,289.4l-0.1-1.6
						c4-0.3,8-0.8,12-1.5l0.3,1.6C186.9,288.5,182.8,289.1,178.7,289.4z M145.3,287.2c-4-0.8-8-1.8-11.8-3.1l0.5-1.5
						c3.8,1.2,7.8,2.2,11.7,3L145.3,287.2z M202.8,285.1l-0.4-1.6c3.9-1.1,7.7-2.4,11.4-3.9l0.6,1.5
						C210.6,282.6,206.7,283.9,202.8,285.1z M122,279.9c-3.7-1.6-7.4-3.4-11-5.4l0.8-1.4c3.5,2,7.1,3.8,10.8,5.3L122,279.9z
						 M225.4,276l-0.8-1.4c3.5-1.9,7-3.9,10.4-6.1l0.9,1.3C232.6,272,229,274.1,225.4,276z M100.7,268c-3.3-2.3-6.6-4.9-9.6-7.5
						l1.1-1.2c3,2.6,6.2,5.1,9.5,7.4L100.7,268z M245.8,262.5l-1-1.3c3.1-2.5,6.1-5.3,8.9-8.1l1.1,1.1
						C252,257.1,248.9,259.9,245.8,262.5z M82.2,252c-2.8-3-5.5-6.1-7.9-9.3l1.3-1c2.4,3.2,5.1,6.3,7.8,9.2L82.2,252z M263,245.1
						l-1.3-1c2.5-3.1,4.9-6.4,7.1-9.7l1.4,0.9C268,238.7,265.6,242,263,245.1z M67.3,232.7c-2.1-3.5-4.1-7.1-5.9-10.7l1.5-0.7
						c1.7,3.6,3.7,7.2,5.8,10.6L67.3,232.7z M276.4,224.7l-1.4-0.7c1.8-3.6,3.5-7.2,5-11l1.5,0.6
						C279.9,217.4,278.2,221.1,276.4,224.7z M56.6,210.7C55.2,206.9,54,203,53,199l1.6-0.4c1,3.9,2.2,7.8,3.5,11.5L56.6,210.7z
						 M285.3,202l-1.6-0.4c1.1-3.9,2-7.8,2.7-11.8l1.6,0.3C287.3,194.1,286.4,198.1,285.3,202z M50.7,187.1c-0.6-4-1-8.1-1.2-12.2
						l1.6-0.1c0.2,4,0.6,8.1,1.1,12L50.7,187.1z M289.5,177.9l-1.6-0.1c0.2-2.7,0.3-5.5,0.3-8.3c0-1.3,0-2.5-0.1-3.8l1.6,0
						c0,1.3,0.1,2.5,0.1,3.8C289.8,172.3,289.7,175.2,289.5,177.9z M51.2,162.8l-1.6-0.1c0.2-4.1,0.7-8.1,1.3-12.2l1.6,0.3
						C51.9,154.7,51.4,158.8,51.2,162.8z M287.1,153.7c-0.5-4-1.3-8-2.2-11.9l1.6-0.4c0.9,3.9,1.7,8,2.2,12L287.1,153.7z M55,139
						l-1.6-0.4c1-3.9,2.3-7.8,3.7-11.6l1.5,0.6C57.3,131.2,56,135.1,55,139z M281.5,130.3c-1.3-3.8-2.9-7.5-4.6-11.2l1.5-0.7
						c1.7,3.7,3.3,7.5,4.6,11.3L281.5,130.3z M63.5,116.5l-1.4-0.7c1.8-3.6,3.9-7.2,6-10.6l1.4,0.9
						C67.3,109.3,65.3,112.9,63.5,116.5z M271.2,108.5c-2.1-3.4-4.3-6.8-6.7-10l1.3-1c2.4,3.3,4.7,6.7,6.8,10.1L271.2,108.5z
						 M76.5,96.1l-1.3-1c2.5-3.2,5.2-6.3,8.1-9.2l1.2,1.1C81.6,89.9,79,93,76.5,96.1z M256.8,89.3c-2.7-2.9-5.6-5.8-8.6-8.4l1.1-1.2
						c3,2.7,6,5.6,8.7,8.6L256.8,89.3z M93.2,78.8l-1-1.2c3.1-2.6,6.4-5.1,9.7-7.4l0.9,1.3C99.5,73.8,96.3,76.3,93.2,78.8z
						 M238.8,73.3c-3.3-2.3-6.7-4.5-10.1-6.5l0.8-1.4c3.5,2,7,4.3,10.3,6.6L238.8,73.3z M113.1,65.3l-0.8-1.4
						c3.6-1.9,7.3-3.7,11-5.3l0.6,1.5C120.3,61.6,116.7,63.4,113.1,65.3z M217.9,61.3c-3.7-1.6-7.4-3.1-11.2-4.3l0.5-1.5
						c3.9,1.3,7.7,2.8,11.4,4.4L217.9,61.3z M135.4,56l-0.5-1.6c3.9-1.2,7.9-2.1,11.9-2.9l0.3,1.6C143.1,53.9,139.2,54.9,135.4,56z
						 M195,53.7c-3.9-0.9-7.9-1.5-11.9-2l0.2-1.6c4,0.5,8.1,1.1,12.1,2L195,53.7z M159,51.5l-0.1-1.6c4-0.4,8.1-0.5,12.2-0.5l0,1.6
						C167.1,51,163,51.1,159,51.5z"/>
				</g>
				<g id="Stroke-3">
					<path class="st1" d="M169.4,339.4c-4.1,0-8.2-0.1-12.2-0.4l0.1-1.6c4,0.3,8.1,0.4,12.1,0.4V339.4z M175,339.3l-0.1-1.6
						c4-0.1,8.1-0.4,12.1-0.8l0.2,1.6C183.2,338.9,179.1,339.1,175,339.3z M145.1,337.6c-4-0.6-8.1-1.3-12-2.2l0.3-1.6
						c3.9,0.9,7.9,1.6,11.9,2.1L145.1,337.6z M199.3,336.7l-0.3-1.6c4-0.7,7.9-1.6,11.8-2.5l0.4,1.6
						C207.3,335.2,203.3,336,199.3,336.7z M121.3,332.4c-3.9-1.1-7.8-2.4-11.6-3.9l0.6-1.5c3.8,1.4,7.6,2.7,11.5,3.8L121.3,332.4z
						 M222.9,330.8l-0.5-1.5c3.8-1.3,7.6-2.7,11.3-4.2l0.6,1.5C230.6,328.1,226.8,329.5,222.9,330.8z M98.4,323.9
						c-3.7-1.7-7.3-3.5-10.9-5.5l0.8-1.4c3.5,1.9,7.2,3.8,10.8,5.5L98.4,323.9z M245.5,321.4l-0.7-1.4c3.6-1.8,7.1-3.7,10.6-5.8
						l0.8,1.4C252.7,317.6,249.1,319.6,245.5,321.4z M77,312.1c-3.4-2.2-6.8-4.6-10-7l1-1.3c3.2,2.4,6.5,4.8,9.9,6.9L77,312.1z
						 M266.4,309l-0.9-1.3c3.3-2.3,6.5-4.7,9.7-7.3l1,1.3C273,304.2,269.7,306.7,266.4,309z M57.6,297.4c-3-2.7-6-5.5-8.9-8.4
						l1.2-1.1c2.8,2.9,5.8,5.6,8.8,8.3L57.6,297.4z M285.4,293.6l-1.1-1.2c2.9-2.7,5.8-5.6,8.5-8.6l1.2,1.1
						C291.2,288,288.3,290.9,285.4,293.6z M40.4,280c-2.6-3.1-5.2-6.3-7.6-9.5l1.3-1c2.4,3.2,4.9,6.4,7.5,9.4L40.4,280z M302,275.8
						l-1.3-1c2.5-3.1,5-6.4,7.2-9.7l1.3,0.9C307,269.3,304.5,272.6,302,275.8z M25.9,260.5c-2.2-3.4-4.2-7-6.2-10.5l1.4-0.8
						c1.9,3.5,4,7,6.1,10.4L25.9,260.5z M315.8,255.7l-1.4-0.8c2-3.5,4-7,5.8-10.6l1.5,0.7C319.9,248.6,317.9,252.2,315.8,255.7z
						 M14.3,239c-1.7-3.7-3.2-7.5-4.6-11.3l1.5-0.6c1.4,3.8,2.9,7.5,4.5,11.2L14.3,239z M326.7,233.8l-1.5-0.6
						c1.5-3.7,2.9-7.5,4.2-11.4l1.5,0.5C329.6,226.2,328.2,230.1,326.7,233.8z M6,216.1c-1.1-3.9-2.1-7.9-2.9-11.8l1.6-0.3
						c0.8,3.9,1.8,7.9,2.9,11.7L6,216.1z M334.3,210.6l-1.6-0.4c1-3.9,1.8-7.9,2.5-11.8l1.6,0.3
						C336.1,202.7,335.3,206.7,334.3,210.6z M1,192.2c-0.5-4-0.9-8.1-1.2-12.1l1.6-0.1c0.2,4,0.6,8.1,1.2,12L1,192.2z M338.4,186.6
						l-1.6-0.2c0.4-4,0.7-8,0.8-12.1l1.6,0C339.1,178.5,338.8,182.6,338.4,186.6z M1.1,167.9l-1.6,0c0-4.1,0.2-8.2,0.5-12.2l1.6,0.1
						C1.4,159.8,1.2,163.9,1.1,167.9z M337.5,162.3c-0.2-4-0.5-8.1-0.9-12l1.6-0.2c0.5,4,0.8,8.1,0.9,12.2L337.5,162.3z M3.1,143.8
						l-1.6-0.2c0.6-4,1.4-8,2.3-12l1.6,0.4C4.5,135.9,3.7,139.9,3.1,143.8z M334.8,138.3c-0.7-4-1.6-7.9-2.7-11.8l1.6-0.4
						c1,3.9,1.9,7.9,2.7,11.9L334.8,138.3z M8.5,120.3l-1.5-0.5c1.2-3.9,2.5-7.8,4-11.5l1.5,0.6C11,112.6,9.6,116.4,8.5,120.3z
						 M328.6,114.9c-1.3-3.8-2.8-7.6-4.3-11.3l1.5-0.6c1.6,3.7,3.1,7.5,4.4,11.4L328.6,114.9z M17.2,97.7L15.7,97
						c1.7-3.7,3.6-7.3,5.6-10.8l1.4,0.8C20.8,90.5,18.9,94.1,17.2,97.7z M319.2,92.7c-1.8-3.6-3.8-7.1-5.9-10.5l1.4-0.8
						c2.1,3.5,4.1,7,6,10.6L319.2,92.7z M29.1,76.7l-1.3-0.9c2.2-3.4,4.6-6.7,7.1-9.9l1.3,1C33.7,70,31.3,73.3,29.1,76.7z
						 M306.6,72.1c-2.3-3.3-4.8-6.5-7.4-9.6l1.2-1c2.6,3.1,5.1,6.4,7.4,9.7L306.6,72.1z M43.8,57.5l-1.2-1.1c2.7-3,5.5-6,8.4-8.8
						l1.1,1.2C49.3,51.6,46.5,54.5,43.8,57.5z M291.2,53.5c-2.8-2.9-5.7-5.7-8.6-8.4l1.1-1.2c3,2.7,5.9,5.6,8.7,8.5L291.2,53.5z
						 M61.2,40.7l-1-1.2c3.1-2.6,6.3-5.1,9.6-7.5l1,1.3C67.4,35.6,64.2,38.1,61.2,40.7z M273.4,37.2c-3.2-2.5-6.4-4.9-9.8-7.1
						l0.9-1.3c3.4,2.3,6.7,4.7,9.9,7.2L273.4,37.2z M80.7,26.5l-0.9-1.4c3.4-2.1,7-4.2,10.6-6.1l0.8,1.4
						C87.6,22.4,84.1,24.4,80.7,26.5z M253.4,23.7c-3.5-2-7.1-3.9-10.7-5.7l0.7-1.5c3.7,1.8,7.3,3.7,10.8,5.7L253.4,23.7z
						 M102.1,15.3l-0.6-1.5c3.7-1.6,7.5-3.1,11.3-4.5l0.5,1.5C109.5,12.2,105.7,13.7,102.1,15.3z M231.6,13.1
						c-3.7-1.5-7.6-2.9-11.4-4.1l0.5-1.5c3.9,1.2,7.7,2.6,11.5,4.1L231.6,13.1z M124.8,7.2l-0.4-1.6c3.9-1.1,7.9-2,11.9-2.8l0.3,1.6
						C132.7,5.3,128.7,6.2,124.8,7.2z M208.6,5.9c-3.9-0.9-7.9-1.7-11.8-2.4l0.3-1.6c4,0.7,8,1.5,12,2.4L208.6,5.9z M148.5,2.6
						L148.3,1c4-0.5,8.1-0.9,12.2-1.1l0.1,1.6C156.6,1.7,152.5,2.1,148.5,2.6z M184.7,2c-4-0.4-8-0.6-12.1-0.7l0-1.6
						c4.1,0.1,8.2,0.3,12.2,0.7L184.7,2z"/>
				</g>
			</g>
			<g id="Fill-6">
				<polygon class="st2" points="98.6,195.4 118.9,194.3 104.1,208.2 				"/>
			</g>
			<g id="Stroke-7">
				<path class="st1" d="M104.1,209c-0.1,0-0.1,0-0.2,0c-0.3-0.1-0.5-0.2-0.6-0.5l-5.4-12.8c-0.1-0.2-0.1-0.5,0.1-0.7
					c0.1-0.2,0.4-0.4,0.6-0.4l20.3-1.1c0.3,0,0.7,0.2,0.8,0.5s0.1,0.7-0.2,0.9l-14.8,13.9C104.5,208.9,104.3,209,104.1,209z
					 M99.8,196.2l4.5,10.7l12.4-11.5L99.8,196.2z"/>
			</g>
			<g id="Fill-8">
				<polygon class="st3" points="42,208 62.3,199.4 76,231.6 55.7,240.2 				"/>
			</g>
			<g id="Stroke-9">
				<path class="st1" d="M55.7,241c-0.3,0-0.6-0.2-0.7-0.5l-13.7-32.2c-0.1-0.2-0.1-0.4,0-0.6s0.2-0.4,0.4-0.4l20.3-8.6
					c0.4-0.2,0.9,0,1.1,0.4l13.7,32.2c0.1,0.2,0.1,0.4,0,0.6s-0.2,0.4-0.4,0.4L56,240.9C55.9,240.9,55.8,241,55.7,241z M43.1,208.4
					l13,30.7l18.8-8l-13-30.7L43.1,208.4z"/>
			</g>
			<g id="Fill-10">
				<polygon class="st2" points="58.9,192.4 63.9,190.3 83.6,236.7 78.6,238.9 				"/>
			</g>
			<g id="Stroke-11">
				<polygon class="st4" points="58.9,192.4 63.9,190.3 83.6,236.7 78.6,238.9 				"/>
				<path class="st1" d="M78.6,239.7c-0.3,0-0.6-0.2-0.7-0.5l-19.7-46.4c-0.1-0.2-0.1-0.4,0-0.6s0.2-0.4,0.4-0.4l5-2.1
					c0.4-0.2,0.9,0,1.1,0.4l19.7,46.4c0.1,0.2,0.1,0.4,0,0.6s-0.2,0.4-0.4,0.4l-5,2.1C78.8,239.7,78.7,239.7,78.6,239.7z
					 M59.9,192.8l19.1,45l3.5-1.5l-19.1-45L59.9,192.8z"/>
			</g>
			<g id="Fill-12">
				<polygon class="st3" points="63.5,250 82.2,242 105.9,297.8 87.2,305.8 				"/>
			</g>
			<g id="Stroke-13">
				<path class="st1" d="M87.2,306.6c-0.3,0-0.6-0.2-0.7-0.5l-23.7-55.8c-0.1-0.2-0.1-0.4,0-0.6s0.2-0.4,0.4-0.4l18.8-8
					c0.4-0.2,0.9,0,1.1,0.4l23.7,55.8c0.1,0.2,0.1,0.4,0,0.6s-0.2,0.4-0.4,0.4l-18.8,8C87.4,306.5,87.3,306.6,87.2,306.6z
					 M64.5,250.4l23,54.3l17.3-7.3l-23-54.3L64.5,250.4z"/>
			</g>
			<g id="Fill-14">
				<polygon class="st3" points="68.1,200.2 71.5,198.7 82.8,225.4 79.4,226.8 				"/>
			</g>
			<g id="Stroke-15">
				<path class="st1" d="M79.4,227.6c-0.3,0-0.6-0.2-0.7-0.5l-11.3-26.6c-0.1-0.2-0.1-0.4,0-0.6s0.2-0.4,0.4-0.4l3.5-1.5
					c0.4-0.2,0.9,0,1.1,0.4l11.3,26.6c0.1,0.2,0.1,0.4,0,0.6s-0.2,0.4-0.4,0.4l-3.5,1.5C79.6,227.6,79.5,227.6,79.4,227.6z
					 M69.1,200.6l10.7,25.2l2-0.8l-10.7-25.2L69.1,200.6z"/>
			</g>
			<g id="Fill-16">
				<polygon class="st2" points="73.8,203.4 81.8,200 82.6,201.8 74.5,205.2 				"/>
			</g>
			<g id="Stroke-17">
				<path class="st1" d="M74.5,206c-0.3,0-0.6-0.2-0.7-0.5l-0.8-1.8c-0.1-0.2-0.1-0.4,0-0.6s0.2-0.4,0.4-0.4l8-3.4
					c0.4-0.2,0.9,0,1.1,0.4l0.8,1.8c0.1,0.2,0.1,0.4,0,0.6s-0.2,0.4-0.4,0.4l-8,3.4C74.8,206,74.7,206,74.5,206z M74.8,203.8
					l0.1,0.3l6.5-2.8l-0.1-0.3L74.8,203.8z"/>
			</g>
			<g id="Fill-18">
				<polygon class="st2" points="80.3,218.7 88.3,215.3 89.1,217.1 81,220.5 				"/>
			</g>
			<g id="Stroke-19">
				<path class="st1" d="M81,221.3c-0.3,0-0.6-0.2-0.7-0.5l-0.8-1.8c-0.2-0.4,0-0.9,0.4-1.1l8-3.4c0.4-0.2,0.9,0,1.1,0.4l0.8,1.8
					c0.1,0.2,0.1,0.4,0,0.6s-0.2,0.4-0.4,0.4l-8,3.4C81.3,221.3,81.2,221.3,81,221.3z M81.3,219.2l0.1,0.3l6.5-2.8l-0.1-0.3
					L81.3,219.2z"/>
			</g>
			<g id="Fill-20">
				<polygon class="st3" points="69.4,238 72.8,246 71,246.8 67.6,238.8 				"/>
			</g>
			<g id="Stroke-21">
				<path class="st1" d="M71,247.6c-0.3,0-0.6-0.2-0.7-0.5l-3.4-8c-0.1-0.2-0.1-0.4,0-0.6s0.2-0.4,0.4-0.4l1.8-0.8
					c0.4-0.2,0.9,0,1.1,0.4l3.4,8c0.1,0.2,0.1,0.4,0,0.6s-0.2,0.4-0.4,0.4l-1.8,0.8C71.3,247.6,71.1,247.6,71,247.6z M68.7,239.2
					l2.8,6.5l0.3-0.1l-2.8-6.5L68.7,239.2z"/>
			</g>
			<g id="Fill-22">
				<polygon class="st3" points="37.4,216.1 42,208 55.7,240.2 46.6,237.8 				"/>
			</g>
			<g id="Stroke-23">
				<path class="st1" d="M55.7,241c-0.1,0-0.1,0-0.2,0l-9.1-2.4c-0.2-0.1-0.4-0.2-0.5-0.5l-9.2-21.7c-0.1-0.2-0.1-0.5,0-0.7l4.6-8.2
					c0.2-0.3,0.4-0.4,0.8-0.4c0.3,0,0.6,0.2,0.7,0.5l13.7,32.2c0.1,0.3,0.1,0.6-0.1,0.8C56.2,240.9,55.9,241,55.7,241z M47.2,237.1
					l7.1,1.8l-12.4-29.2l-3.6,6.4L47.2,237.1z"/>
			</g>
			<g id="Fill-24">
				<polygon class="st3" points="37.4,216.1 31.8,212.3 45.4,244.5 46.6,237.8 				"/>
			</g>
			<g id="Stroke-25">
				<path class="st1" d="M45.4,245.3c-0.3,0-0.6-0.2-0.7-0.5L31,212.6c-0.1-0.3,0-0.7,0.2-0.9c0.3-0.2,0.7-0.2,1,0l5.7,3.8
					c0.1,0.1,0.2,0.2,0.3,0.4l9.2,21.7c0.1,0.1,0.1,0.3,0.1,0.5l-1.2,6.7C46.2,245,45.9,245.3,45.4,245.3
					C45.5,245.3,45.5,245.3,45.4,245.3z M33.6,214.5l11.5,27.2l0.7-3.8l-9-21.2L33.6,214.5z"/>
			</g>
			<g id="Fill-26">
				<polygon class="st3" points="34.1,218.2 28.3,217 32.4,226.6 35.6,221.7 				"/>
			</g>
			<g id="Stroke-27">
				<path class="st1" d="M32.4,227.4C32.4,227.4,32.4,227.4,32.4,227.4c-0.4,0-0.6-0.2-0.7-0.5l-4.1-9.6c-0.1-0.3-0.1-0.6,0.1-0.8
					c0.2-0.2,0.5-0.3,0.8-0.3l5.8,1.2c0.3,0.1,0.5,0.2,0.6,0.5l1.5,3.5c0.1,0.2,0.1,0.5-0.1,0.8l-3.2,5
					C33,227.3,32.7,227.4,32.4,227.4z M29.7,218.1l2.9,6.8l2.1-3.3l-1.1-2.7L29.7,218.1z"/>
			</g>
			<g id="Fill-28">
				<polygon class="st3" points="41.4,235.3 35.6,234.1 39.7,243.7 42.8,238.8 				"/>
			</g>
			<g id="Stroke-29">
				<path class="st1" d="M39.7,244.5C39.7,244.5,39.6,244.5,39.7,244.5c-0.4,0-0.6-0.2-0.7-0.5l-4.1-9.6c-0.1-0.3-0.1-0.6,0.1-0.8
					c0.2-0.2,0.5-0.3,0.8-0.3l5.8,1.2c0.3,0.1,0.5,0.2,0.6,0.5l1.5,3.5c0.1,0.2,0.1,0.5-0.1,0.8l-3.2,5
					C40.2,244.4,40,244.5,39.7,244.5z M36.9,235.2l2.9,6.8l2.1-3.3l-1.1-2.7L36.9,235.2z"/>
			</g>
			<g id="Fill-30">
				<polygon class="st4" points="72.5,200.4 74.9,199.4 78.2,207.1 75.8,208.2 				"/>
			</g>
			<g id="Stroke-31">
				<path class="st1" d="M75.8,209c-0.1,0-0.2,0-0.3-0.1c-0.2-0.1-0.4-0.2-0.4-0.4l-3.3-7.8c-0.1-0.2-0.1-0.4,0-0.6s0.2-0.4,0.4-0.4
					l2.4-1c0.4-0.2,0.9,0,1.1,0.4l3.3,7.8c0.2,0.4,0,0.9-0.4,1.1l-2.4,1C76,209,75.9,209,75.8,209z M73.6,200.8l2.7,6.3l0.9-0.4
					l-2.7-6.3L73.6,200.8z"/>
			</g>
			<g id="Fill-32">
				<polygon class="st4" points="79,215.7 81.4,214.7 84.7,222.5 82.3,223.5 				"/>
			</g>
			<g id="Stroke-33">
				<path class="st1" d="M82.3,224.3c-0.3,0-0.6-0.2-0.7-0.5l-3.3-7.8c-0.1-0.2-0.1-0.4,0-0.6s0.2-0.4,0.4-0.4l2.4-1
					c0.4-0.2,0.9,0,1.1,0.4l3.3,7.8c0.1,0.2,0.1,0.4,0,0.6s-0.2,0.4-0.4,0.4l-2.4,1C82.5,224.3,82.4,224.3,82.3,224.3z M80.1,216.2
					l2.7,6.3l0.9-0.4l-2.7-6.3L80.1,216.2z"/>
			</g>
			<g id="Fill-34">
				<polygon class="st3" points="65.4,236 69,234.5 70.7,238.4 67.1,239.9 				"/>
			</g>
			<g id="Stroke-35">
				<polygon class="st2" points="65.4,236 69,234.5 70.7,238.4 67.1,239.9 				"/>
				<path class="st1" d="M67.1,240.7c-0.3,0-0.6-0.2-0.7-0.5l-1.6-3.9c-0.1-0.2-0.1-0.4,0-0.6s0.2-0.4,0.4-0.4l3.6-1.5
					c0.4-0.2,0.9,0,1.1,0.4l1.6,3.9c0.1,0.2,0.1,0.4,0,0.6s-0.2,0.4-0.4,0.4l-3.6,1.5C67.3,240.7,67.2,240.7,67.1,240.7z
					 M66.5,236.5l1,2.4l2.1-0.9l-1-2.4L66.5,236.5z"/>
			</g>
			<g id="Fill-36">
				<path class="st2" d="M86.8,208c-6.1-14.4-5.1-28.9,1.7-35.5c1.1-1.1,3.7-2.9,5.7,1.9c2,4.8,19.9,46.9,21.8,51.3
					s-0.9,5.8-2.5,5.8C104.1,231.9,92.9,222.4,86.8,208z"/>
			</g>
			<g id="Stroke-38">
				<path class="st4" d="M86.8,208c-6.1-14.4-5.1-28.9,1.7-35.5c1.1-1.1,3.7-2.9,5.7,1.9c2,4.8,19.9,46.9,21.8,51.3
					s-0.9,5.8-2.5,5.8C104.1,231.9,92.9,222.4,86.8,208z"/>
				<path class="st1" d="M113,232.3c-9.9,0-20.9-9.8-27-24c-6.1-14.5-5.4-29.4,1.8-36.4c1.5-1.5,2.8-1.6,3.7-1.4
					c1.4,0.3,2.5,1.5,3.4,3.6l21.8,51.3c1.1,2.6,0.7,4.2,0.1,5.1c-0.8,1.3-2.2,1.8-3.3,1.8C113.4,232.3,113.2,232.3,113,232.3z
					 M91,172.1c-0.7,0-1.4,0.5-1.9,1c-6.6,6.4-7.3,21-1.5,34.6l0,0c5.8,13.6,16.7,23.3,25.9,23c0.6,0,1.5-0.3,2-1
					c0.5-0.8,0.4-2.1-0.2-3.6l-21.8-51.3c-0.7-1.6-1.4-2.5-2.2-2.6C91.2,172.1,91.1,172.1,91,172.1z"/>
			</g>
			<g id="Fill-40">
				<polygon class="st4" points="81.2,198.5 83.6,197.5 92.1,217.6 89.7,218.6 				"/>
			</g>
			<g id="Stroke-42">
				<path class="st1" d="M89.7,219.4c-0.3,0-0.6-0.2-0.7-0.5l-8.6-20.1c-0.1-0.2-0.1-0.4,0-0.6s0.2-0.4,0.4-0.4l2.4-1
					c0.4-0.2,0.9,0,1.1,0.4l8.6,20.1c0.1,0.2,0.1,0.4,0,0.6s-0.2,0.4-0.4,0.4l-2.4,1C89.9,219.4,89.8,219.4,89.7,219.4z M82.2,198.9
					l7.9,18.6l0.9-0.4l-7.9-18.6L82.2,198.9z"/>
			</g>
			<g id="Fill-44">
				<path class="st1" d="M120.7,196.7c-1.5,0.6-3.1-0.1-3.8-1.5c-0.6-1.5,0.1-3.1,1.5-3.8c1.5-0.6,3.1,0.1,3.8,1.5
					C122.9,194.4,122.2,196.1,120.7,196.7"/>
			</g>
			<g id="Fill-46" class="st0">
				
					<rect x="80.1" y="246.9" transform="matrix(0.9205 -0.3908 0.3908 0.9205 -90.4838 51.4834)" class="st1" width="2.3" height="2.3"/>
			</g>
			<g id="Stroke-48">
				<polygon class="st3" points="80.6,249.6 79.8,247.5 81.9,246.6 82.7,248.7 				"/>
			</g>
			<g id="Fill-50" class="st0">
				
					<rect x="81.6" y="250.3" transform="matrix(0.9205 -0.3908 0.3908 0.9205 -91.7046 52.3227)" class="st1" width="2.3" height="2.3"/>
			</g>
			<g id="Stroke-52">
				<polygon class="st3" points="82.1,253 81.2,250.9 83.3,250 84.2,252.1 				"/>
			</g>
			<g id="Fill-54" class="st0">
				
					<rect x="83" y="253.8" transform="matrix(0.9205 -0.3908 0.3908 0.9205 -92.9257 53.1623)" class="st1" width="2.3" height="2.3"/>
			</g>
			<g id="Stroke-56">
				<polygon class="st3" points="83.5,256.4 82.7,254.3 84.8,253.4 85.7,255.5 				"/>
			</g>
			<g id="Fill-58" class="st0">
				
					<rect x="84.5" y="257.2" transform="matrix(0.9205 -0.3908 0.3908 0.9205 -94.1474 54.0024)" class="st1" width="2.3" height="2.3"/>
			</g>
			<g id="Stroke-60">
				<polygon class="st3" points="85,259.8 84.1,257.7 86.2,256.8 87.1,258.9 				"/>
			</g>
			<g id="Fill-62" class="st0">
				
					<rect x="77" y="248.3" transform="matrix(0.9205 -0.3908 0.3908 0.9205 -91.2588 50.3569)" class="st1" width="2.3" height="2.3"/>
			</g>
			<g id="Stroke-64">
				<polygon class="st3" points="77.5,250.9 76.6,248.8 78.7,247.9 79.6,250 				"/>
			</g>
			<g id="Fill-66" class="st0">
				
					<rect x="78.4" y="251.7" transform="matrix(0.9205 -0.3908 0.3908 0.9205 -92.4795 51.1961)" class="st1" width="2.3" height="2.3"/>
			</g>
			<g id="Stroke-68">
				<polygon class="st3" points="78.9,254.3 78,252.2 80.2,251.3 81,253.4 				"/>
			</g>
			<g id="Fill-70" class="st0">
				
					<rect x="79.9" y="255.1" transform="matrix(0.9205 -0.3908 0.3908 0.9205 -93.7006 52.0358)" class="st1" width="2.3" height="2.3"/>
			</g>
			<g id="Stroke-72">
				<polygon class="st3" points="79.5,255.6 81.6,254.7 82.5,256.8 80.4,257.7 				"/>
			</g>
			<g id="Fill-74" class="st0">
				
					<rect x="81.3" y="258.5" transform="matrix(0.9205 -0.3908 0.3908 0.9205 -94.9194 52.8733)" class="st1" width="2.3" height="2.3"/>
			</g>
			<g id="Stroke-76">
				<polygon class="st3" points="81.8,261.2 81,259 83.1,258.2 83.9,260.3 				"/>
			</g>
			<g id="Fill-78" class="st0">
				
					<rect x="73.8" y="249.6" transform="matrix(0.9205 -0.3908 0.3908 0.9205 -92.0327 49.2295)" class="st1" width="2.3" height="2.3"/>
			</g>
			<g id="Stroke-80">
				<polygon class="st3" points="74.3,252.2 73.4,250.1 75.5,249.2 76.4,251.3 				"/>
			</g>
			<g id="Fill-82" class="st0">
				
					<rect x="75.2" y="253" transform="matrix(0.9205 -0.3908 0.3908 0.9205 -93.2539 50.0692)" class="st1" width="2.3" height="2.3"/>
			</g>
			<g id="Stroke-84">
				<polygon class="st3" points="75.8,255.7 74.9,253.5 77,252.7 77.9,254.8 				"/>
			</g>
			<g id="Fill-86" class="st0">
				
					<rect x="76.7" y="256.4" transform="matrix(0.9205 -0.3908 0.3908 0.9205 -94.4756 50.9092)" class="st1" width="2.3" height="2.3"/>
			</g>
			<g id="Stroke-88">
				<polygon class="st3" points="77.2,259.1 76.3,257 78.4,256.1 79.3,258.2 				"/>
			</g>
			<g id="Fill-90" class="st0">
				
					<rect x="78.2" y="259.8" transform="matrix(0.9205 -0.3908 0.3908 0.9205 -95.6943 51.7468)" class="st1" width="2.3" height="2.3"/>
			</g>
			<g id="Stroke-92">
				<polygon class="st3" points="78.7,262.5 77.8,260.4 79.9,259.5 80.8,261.6 				"/>
			</g>
			<g id="Fill-94" class="st0">
				
					<rect x="70.6" y="250.9" transform="matrix(0.9205 -0.3908 0.3908 0.9205 -92.8077 48.103)" class="st1" width="2.3" height="2.3"/>
			</g>
			<g id="Stroke-96">
				<polygon class="st3" points="71.2,253.6 70.3,251.5 72.4,250.6 73.3,252.7 				"/>
			</g>
			<g id="Fill-98" class="st0">
				
					<rect x="72.1" y="254.4" transform="matrix(0.9205 -0.3908 0.3908 0.9205 -94.0289 48.9426)" class="st1" width="2.3" height="2.3"/>
			</g>
			<g id="Stroke-100">
				<polygon class="st3" points="72.6,257 71.7,254.9 73.8,254 74.7,256.1 				"/>
			</g>
			<g id="Fill-102" class="st0">
				
					<rect x="73.5" y="257.8" transform="matrix(0.9205 -0.3908 0.3908 0.9205 -95.2476 49.7803)" class="st1" width="2.3" height="2.3"/>
			</g>
			<g id="Stroke-104">
				<polygon class="st3" points="74.1,260.4 73.2,258.3 75.3,257.4 76.2,259.5 				"/>
			</g>
			<g id="Fill-106" class="st0">
				
					<rect x="75" y="261.2" transform="matrix(0.9205 -0.3908 0.3908 0.9205 -96.4708 50.6215)" class="st1" width="2.3" height="2.3"/>
			</g>
			<g id="Stroke-108">
				<polygon class="st3" points="75.5,263.8 74.6,261.7 76.7,260.8 77.6,262.9 				"/>
			</g>
			<g id="Fill-110" class="st0">
				
					<rect x="67.5" y="252.3" transform="matrix(0.9205 -0.3908 0.3908 0.9205 -93.5821 46.976)" class="st1" width="2.3" height="2.3"/>
			</g>
			<g id="Stroke-112">
				<polygon class="st3" points="68,254.9 67.1,252.8 69.2,251.9 70.1,254 				"/>
			</g>
			<g id="Fill-114" class="st0">
				
					<rect x="68.9" y="255.7" transform="matrix(0.9205 -0.3908 0.3908 0.9205 -94.8018 47.8145)" class="st1" width="2.3" height="2.3"/>
			</g>
			<g id="Stroke-116">
				<polygon class="st3" points="69.5,258.3 68.6,256.2 70.7,255.3 71.6,257.4 				"/>
			</g>
			<g id="Fill-118" class="st0">
				
					<rect x="70.4" y="259.1" transform="matrix(0.9205 -0.3908 0.3908 0.9205 -96.0225 48.6537)" class="st1" width="2.3" height="2.3"/>
			</g>
			<g id="Stroke-120">
				<polygon class="st3" points="70.9,261.7 70,259.6 72.1,258.8 73,260.9 				"/>
			</g>
			<g id="Fill-122" class="st0">
				
					<rect x="71.8" y="262.5" transform="matrix(0.9205 -0.3908 0.3908 0.9205 -97.2447 49.4941)" class="st1" width="2.3" height="2.3"/>
			</g>
			<g id="Stroke-124">
				<polygon class="st3" points="72.4,265.2 71.5,263.1 73.6,262.2 74.5,264.3 				"/>
			</g>
			<g id="Fill-126" class="st0">
				
					<rect x="87.7" y="264.8" transform="matrix(0.9205 -0.3908 0.3908 0.9205 -96.8778 55.8795)" class="st1" width="2.3" height="2.3"/>
			</g>
			<g id="Stroke-128">
				<polygon class="st3" points="88.2,267.5 87.4,265.4 89.5,264.5 90.4,266.6 				"/>
			</g>
			<g id="Fill-130" class="st0">
				
					<rect x="89.2" y="268.2" transform="matrix(0.9205 -0.3908 0.3908 0.9205 -98.097 56.7174)" class="st1" width="2.3" height="2.3"/>
			</g>
			<g id="Stroke-132">
				<polygon class="st3" points="89.7,270.9 88.8,268.8 90.9,267.9 91.8,270 				"/>
			</g>
			<g id="Fill-134" class="st0">
				
					<rect x="90.6" y="271.7" transform="matrix(0.9205 -0.3908 0.3908 0.9205 -99.3193 57.558)" class="st1" width="2.3" height="2.3"/>
			</g>
			<g id="Stroke-136">
				<polygon class="st3" points="91.2,274.3 90.3,272.2 92.4,271.3 93.3,273.4 				"/>
			</g>
			<g id="Fill-138" class="st0">
				
					<rect x="92.1" y="275.1" transform="matrix(0.9205 -0.3908 0.3908 0.9205 -100.5384 58.3959)" class="st1" width="2.3" height="2.3"/>
			</g>
			<g id="Stroke-140">
				<polygon class="st3" points="92.6,277.7 91.7,275.6 93.8,274.7 94.7,276.8 				"/>
			</g>
			<g id="Fill-142" class="st0">
				
					<rect x="84.6" y="266.2" transform="matrix(0.9205 -0.3908 0.3908 0.9205 -97.6508 54.7513)" class="st1" width="2.3" height="2.3"/>
			</g>
			<g id="Stroke-144">
				<polygon class="st3" points="85.1,268.8 84.2,266.7 86.3,265.8 87.2,267.9 				"/>
			</g>
			<g id="Fill-146" class="st0">
				
					<rect x="86" y="269.6" transform="matrix(0.9205 -0.3908 0.3908 0.9205 -98.8735 55.5922)" class="st1" width="2.3" height="2.3"/>
			</g>
			<g id="Stroke-148">
				<polygon class="st3" points="86.5,272.2 85.6,270.1 87.8,269.2 88.6,271.3 				"/>
			</g>
			<g id="Fill-150" class="st0">
				
					<rect x="87.5" y="273" transform="matrix(0.9205 -0.3908 0.3908 0.9205 -100.0937 56.431)" class="st1" width="2.3" height="2.3"/>
			</g>
			<g id="Stroke-152">
				<polygon class="st3" points="88,275.6 87.1,273.5 89.2,272.6 90.1,274.7 				"/>
			</g>
			<g id="Fill-154" class="st0">
				
					<rect x="88.9" y="276.4" transform="matrix(0.9205 -0.3908 0.3908 0.9205 -101.3123 57.2685)" class="st1" width="2.3" height="2.3"/>
			</g>
			<g id="Stroke-156">
				<polygon class="st3" points="89.4,279.1 88.6,277 90.7,276.1 91.6,278.2 				"/>
			</g>
			<g id="Fill-158" class="st0">
				
					<rect x="81.4" y="267.5" transform="matrix(0.9205 -0.3908 0.3908 0.9205 -98.4247 53.6239)" class="st1" width="2.3" height="2.3"/>
			</g>
			<g id="Stroke-160">
				<polygon class="st3" points="81.9,270.1 81,268 83.1,267.1 84,269.2 				"/>
			</g>
			<g id="Fill-162" class="st0">
				
					<rect x="82.8" y="270.9" transform="matrix(0.9205 -0.3908 0.3908 0.9205 -99.648 54.4653)" class="st1" width="2.3" height="2.3"/>
			</g>
			<g id="Stroke-164">
				<polygon class="st3" points="83.4,273.6 82.5,271.5 84.6,270.6 85.5,272.7 				"/>
			</g>
			<g id="Fill-166" class="st0">
				
					<rect x="84.3" y="274.3" transform="matrix(0.9205 -0.3908 0.3908 0.9205 -100.8666 55.3028)" class="st1" width="2.3" height="2.3"/>
			</g>
			<g id="Stroke-168">
				<polygon class="st3" points="84.8,277 83.9,274.9 86,274 86.9,276.1 				"/>
			</g>
			<g id="Fill-170" class="st0">
				
					<rect x="85.8" y="277.8" transform="matrix(0.9205 -0.3908 0.3908 0.9205 -102.0894 56.1438)" class="st1" width="2.3" height="2.3"/>
			</g>
			<g id="Stroke-172">
				<polygon class="st3" points="86.3,280.4 85.4,278.3 87.5,277.4 88.4,279.5 				"/>
			</g>
			<g id="Fill-174" class="st0">
				
					<rect x="78.2" y="268.8" transform="matrix(0.9205 -0.3908 0.3908 0.9205 -99.2017 52.4991)" class="st1" width="2.3" height="2.3"/>
			</g>
			<g id="Stroke-176">
				<polygon class="st3" points="78.8,271.5 77.9,269.4 80,268.5 80.9,270.6 				"/>
			</g>
			<g id="Fill-178" class="st0">
				
					<rect x="79.7" y="272.3" transform="matrix(0.9205 -0.3908 0.3908 0.9205 -100.4219 53.3379)" class="st1" width="2.3" height="2.3"/>
			</g>
			<g id="Stroke-180">
				<polygon class="st3" points="80.2,274.9 79.3,272.8 81.4,271.9 82.3,274 				"/>
			</g>
			<g id="Fill-182" class="st0">
				
					<rect x="81.1" y="275.7" transform="matrix(0.9205 -0.3908 0.3908 0.9205 -101.641 54.1758)" class="st1" width="2.3" height="2.3"/>
			</g>
			<g id="Stroke-184">
				<polygon class="st3" points="81.7,278.3 80.8,276.2 82.9,275.3 83.8,277.4 				"/>
			</g>
			<g id="Fill-186" class="st0">
				
					<rect x="82.6" y="279.1" transform="matrix(0.9205 -0.3908 0.3908 0.9205 -102.8633 55.0164)" class="st1" width="2.3" height="2.3"/>
			</g>
			<g id="Stroke-188">
				<polygon class="st3" points="83.1,281.7 82.2,279.6 84.3,278.7 85.2,280.8 				"/>
			</g>
			<g id="Fill-190" class="st0">
				
					<rect x="75.1" y="270.2" transform="matrix(0.9205 -0.3908 0.3908 0.9205 -99.9762 51.3721)" class="st1" width="2.3" height="2.3"/>
			</g>
			<g id="Stroke-192">
				<polygon class="st3" points="75.6,272.8 74.7,270.7 76.8,269.8 77.7,271.9 				"/>
			</g>
			<g id="Fill-194" class="st0">
				
					<rect x="76.5" y="273.6" transform="matrix(0.9205 -0.3908 0.3908 0.9205 -101.1948 52.2096)" class="st1" width="2.3" height="2.3"/>
			</g>
			<g id="Stroke-196">
				<polygon class="st3" points="77.1,276.2 76.2,274.1 78.3,273.2 79.2,275.3 				"/>
			</g>
			<g id="Fill-198" class="st0">
				
					<rect x="78" y="277" transform="matrix(0.9205 -0.3908 0.3908 0.9205 -102.4176 53.0506)" class="st1" width="2.3" height="2.3"/>
			</g>
			<g id="Stroke-200">
				<polygon class="st3" points="78.5,279.7 77.6,277.6 79.7,276.7 80.6,278.8 				"/>
			</g>
			<g id="Fill-202" class="st0">
				
					<rect x="79.4" y="280.4" transform="matrix(0.9205 -0.3908 0.3908 0.9205 -103.6383 53.8898)" class="st1" width="2.3" height="2.3"/>
			</g>
			<g id="Stroke-204">
				<polygon class="st3" points="80,283.1 79.1,281 81.2,280.1 82.1,282.2 				"/>
			</g>
			<g id="Fill-206" class="st0">
				
					<rect x="95.3" y="282.7" transform="matrix(0.9205 -0.3908 0.3908 0.9205 -103.2714 60.2753)" class="st1" width="2.3" height="2.3"/>
			</g>
			<g id="Stroke-208">
				<polygon class="st3" points="95.8,285.4 95,283.3 97.1,282.4 98,284.5 				"/>
			</g>
			<g id="Fill-210" class="st0">
				
					<rect x="96.8" y="286.1" transform="matrix(0.9205 -0.3908 0.3908 0.9205 -104.4895 61.1121)" class="st1" width="2.3" height="2.3"/>
			</g>
			<g id="Stroke-212">
				<polygon class="st3" points="97.3,288.8 96.4,286.7 98.5,285.8 99.4,287.9 				"/>
			</g>
			<g id="Fill-214" class="st0">
				
					<rect x="98.2" y="289.6" transform="matrix(0.9205 -0.3908 0.3908 0.9205 -105.7128 61.9538)" class="st1" width="2.3" height="2.3"/>
			</g>
			<g id="Stroke-216">
				<polygon class="st3" points="98.8,292.2 97.9,290.1 100,289.2 100.9,291.3 				"/>
			</g>
			<g id="Fill-218" class="st0">
				
					<rect x="99.7" y="293" transform="matrix(0.9205 -0.3908 0.3908 0.9205 -106.9314 62.7911)" class="st1" width="2.3" height="2.3"/>
			</g>
			<g id="Stroke-220">
				<polygon class="st3" points="100.2,295.6 99.3,293.5 101.4,292.6 102.3,294.7 				"/>
			</g>
			<g id="Fill-222" class="st0">
				
					<rect x="92.2" y="284.1" transform="matrix(0.9205 -0.3908 0.3908 0.9205 -104.0438 59.1464)" class="st1" width="2.3" height="2.3"/>
			</g>
			<g id="Stroke-224">
				<polygon class="st3" points="92.7,286.7 91.8,284.6 93.9,283.7 94.8,285.8 				"/>
			</g>
			<g id="Fill-226" class="st0">
				
					<rect x="93.6" y="287.5" transform="matrix(0.9205 -0.3908 0.3908 0.9205 -105.2666 59.9876)" class="st1" width="2.3" height="2.3"/>
			</g>
			<g id="Stroke-228">
				<polygon class="st3" points="94.1,290.1 93.3,288 95.4,287.1 96.2,289.2 				"/>
			</g>
			<g id="Fill-230" class="st0">
				
					<rect x="95.1" y="290.9" transform="matrix(0.9205 -0.3908 0.3908 0.9205 -106.4846 60.8244)" class="st1" width="2.3" height="2.3"/>
			</g>
			<g id="Stroke-232">
				<polygon class="st3" points="95.6,293.5 94.7,291.4 96.8,290.5 97.7,292.6 				"/>
			</g>
			<g id="Fill-234" class="st0">
				
					<rect x="96.5" y="294.3" transform="matrix(0.9205 -0.3908 0.3908 0.9205 -107.7053 61.6636)" class="st1" width="2.3" height="2.3"/>
			</g>
			<g id="Stroke-236">
				<polygon class="st3" points="97,297 96.2,294.9 98.3,294 99.2,296.1 				"/>
			</g>
			<g id="Fill-238" class="st0">
				
					<rect x="89" y="285.4" transform="matrix(0.9205 -0.3908 0.3908 0.9205 -104.8198 58.0209)" class="st1" width="2.3" height="2.3"/>
			</g>
			<g id="Stroke-240">
				<polygon class="st3" points="89.5,288 88.6,285.9 90.7,285 91.6,287.2 				"/>
			</g>
			<g id="Fill-242" class="st0">
				
					<rect x="90.5" y="288.8" transform="matrix(0.9205 -0.3908 0.3908 0.9205 -106.0411 58.8606)" class="st1" width="2.3" height="2.3"/>
			</g>
			<g id="Stroke-244">
				<polygon class="st3" points="91,291.5 90.1,289.4 92.2,288.5 93.1,290.6 				"/>
			</g>
			<g id="Fill-246" class="st0">
				
					<rect x="91.9" y="292.2" transform="matrix(0.9205 -0.3908 0.3908 0.9205 -107.2596 59.6979)" class="st1" width="2.3" height="2.3"/>
			</g>
			<g id="Stroke-248">
				<polygon class="st3" points="92.4,294.9 91.5,292.8 93.7,291.9 94.5,294 				"/>
			</g>
			<g id="Fill-250" class="st0">
				
					<rect x="93.4" y="295.7" transform="matrix(0.9205 -0.3908 0.3908 0.9205 -108.4825 60.5391)" class="st1" width="2.3" height="2.3"/>
			</g>
			<g id="Stroke-252">
				<polygon class="st3" points="93.9,298.3 93,296.2 95.1,295.3 96,297.4 				"/>
			</g>
			<g id="Fill-254" class="st0">
				
					<rect x="85.8" y="286.7" transform="matrix(0.9205 -0.3908 0.3908 0.9205 -105.5948 56.8944)" class="st1" width="2.3" height="2.3"/>
			</g>
			<g id="Stroke-256">
				<polygon class="st3" points="86.4,289.4 85.5,287.3 87.6,286.4 88.5,288.5 				"/>
			</g>
			<g id="Fill-258" class="st0">
				
					<rect x="87.3" y="290.2" transform="matrix(0.9205 -0.3908 0.3908 0.9205 -106.8133 57.7318)" class="st1" width="2.3" height="2.3"/>
			</g>
			<g id="Stroke-260">
				<polygon class="st3" points="87.8,292.8 86.9,290.7 89,289.8 89.9,291.9 				"/>
			</g>
			<g id="Fill-262" class="st0">
				
					<rect x="88.7" y="293.6" transform="matrix(0.9205 -0.3908 0.3908 0.9205 -108.0357 58.5724)" class="st1" width="2.3" height="2.3"/>
			</g>
			<g id="Stroke-264">
				<polygon class="st3" points="89.3,296.2 88.4,294.1 90.5,293.2 91.4,295.3 				"/>
			</g>
			<g id="Fill-266" class="st0">
				
					<rect x="90.2" y="297" transform="matrix(0.9205 -0.3908 0.3908 0.9205 -109.2569 59.4121)" class="st1" width="2.3" height="2.3"/>
			</g>
			<g id="Stroke-268">
				<polygon class="st3" points="90.7,299.6 89.8,297.5 91.9,296.6 92.8,298.7 				"/>
			</g>
			<g id="Fill-270" class="st0">
				
					<rect x="82.7" y="288.1" transform="matrix(0.9205 -0.3908 0.3908 0.9205 -106.3693 55.7674)" class="st1" width="2.3" height="2.3"/>
			</g>
			<g id="Stroke-272">
				<polygon class="st3" points="82.3,288.6 84.4,287.7 85.3,289.8 83.2,290.7 				"/>
			</g>
			<g id="Fill-274" class="st0">
				
					<rect x="84.1" y="291.5" transform="matrix(0.9205 -0.3908 0.3908 0.9205 -107.5878 56.6048)" class="st1" width="2.3" height="2.3"/>
			</g>
			<g id="Stroke-276">
				<polygon class="st3" points="84.7,294.1 83.8,292 85.9,291.1 86.8,293.2 				"/>
			</g>
			<g id="Fill-278" class="st0">
				
					<rect x="85.6" y="294.9" transform="matrix(0.9205 -0.3908 0.3908 0.9205 -108.8107 57.4459)" class="st1" width="2.3" height="2.3"/>
			</g>
			<g id="Stroke-280">
				<polygon class="st3" points="86.1,297.6 85.2,295.5 87.3,294.6 88.2,296.7 				"/>
			</g>
			<g id="Fill-282" class="st0">
				
					<rect x="87" y="298.3" transform="matrix(0.9205 -0.3908 0.3908 0.9205 -110.0286 58.2828)" class="st1" width="2.3" height="2.3"/>
			</g>
			<g id="Stroke-284">
				<polygon class="st3" points="87.6,301 86.7,298.9 88.8,298 89.7,300.1 				"/>
			</g>
			<g id="Fill-286">
				<polygon class="st3" points="40.2,195.3 59,187.3 35.3,131.5 16.6,139.5 				"/>
			</g>
			<g id="Fill-290">
				<polygon class="st3" points="53,199.3 49.6,191.3 47.8,192.1 51.2,200.1 				"/>
			</g>
			<g id="Stroke-292">
				<path class="st1" d="M51.2,200.9c-0.3,0-0.6-0.2-0.7-0.5l-3.4-8c-0.1-0.2-0.1-0.4,0-0.6s0.2-0.4,0.4-0.4l1.8-0.8
					c0.4-0.2,0.9,0,1.1,0.4l3.4,8c0.1,0.2,0.1,0.4,0,0.6s-0.2,0.4-0.4,0.4l-1.8,0.8C51.4,200.9,51.3,200.9,51.2,200.9z M48.9,192.5
					l2.8,6.5l0.3-0.1l-2.8-6.5L48.9,192.5z"/>
			</g>
			<g id="Fill-294" class="st5">
				
					<rect x="50.6" y="198.8" transform="matrix(0.9205 -0.3906 0.3906 0.9205 -74.2883 36.5093)" class="st1" width="3.9" height="4.2"/>
			</g>
			<g id="Stroke-296">
				<polygon class="st6" points="51.6,203.6 55.2,202 53.6,198.2 50,199.7 				"/>
				<path class="st1" d="M51.6,204.4c-0.3,0-0.6-0.2-0.7-0.5l-1.6-3.9c-0.1-0.2-0.1-0.4,0-0.6s0.2-0.4,0.4-0.4l3.6-1.5
					c0.4-0.2,0.9,0,1.1,0.4l1.6,3.9c0.1,0.2,0.1,0.4,0,0.6s-0.2,0.4-0.4,0.4l-3.6,1.5C51.8,204.4,51.7,204.4,51.6,204.4z M51,200.1
					l1,2.4l2.1-0.9l-1-2.4L51,200.1z"/>
			</g>
			<g id="Fill-298" class="st5">
				
					<rect x="52.8" y="182.7" transform="matrix(0.9205 -0.3908 0.3908 0.9205 -67.5542 35.7193)" class="st1" width="2.3" height="2.3"/>
			</g>
			<g id="Stroke-300">
				<polygon class="st3" points="52.5,183.2 53.4,185.3 55.5,184.4 54.6,182.3 				"/>
			</g>
			<g id="Fill-302" class="st5">
				
					<rect x="51.4" y="179.3" transform="matrix(0.9205 -0.3908 0.3908 0.9205 -66.3335 34.88)" class="st1" width="2.3" height="2.3"/>
			</g>
			<g id="Stroke-304">
				<polygon class="st3" points="51,179.8 51.9,181.9 54,181 53.1,178.9 				"/>
			</g>
			<g id="Fill-306" class="st5">
				
					<rect x="49.9" y="175.9" transform="matrix(0.9205 -0.3908 0.3908 0.9205 -65.1128 34.0408)" class="st1" width="2.3" height="2.3"/>
			</g>
			<g id="Stroke-308">
				<polygon class="st3" points="49.6,176.4 50.5,178.5 52.6,177.6 51.7,175.5 				"/>
			</g>
			<g id="Fill-310" class="st5">
				
					<rect x="48.5" y="172.4" transform="matrix(0.9205 -0.3908 0.3908 0.9205 -63.8923 33.2017)" class="st1" width="2.3" height="2.3"/>
			</g>
			<g id="Stroke-312">
				<polygon class="st3" points="48.1,173 49,175.1 51.1,174.2 50.2,172.1 				"/>
			</g>
			<g id="Fill-314" class="st5">
				
					<rect x="49.7" y="184" transform="matrix(0.9205 -0.3908 0.3908 0.9205 -68.3294 34.5929)" class="st1" width="2.3" height="2.3"/>
			</g>
			<g id="Stroke-316">
				<polygon class="st3" points="49.3,184.6 50.2,186.7 52.3,185.8 51.4,183.7 				"/>
			</g>
			<g id="Fill-318" class="st5">
				
					<rect x="48.2" y="180.6" transform="matrix(0.9205 -0.3908 0.3908 0.9205 -67.1087 33.7536)" class="st1" width="2.3" height="2.3"/>
			</g>
			<g id="Stroke-320">
				<polygon class="st3" points="47.9,181.2 48.8,183.3 50.9,182.4 50,180.3 				"/>
			</g>
			<g id="Fill-322" class="st5">
				
					<rect x="46.8" y="177.2" transform="matrix(0.9205 -0.3908 0.3908 0.9205 -65.8874 32.914)" class="st1" width="2.3" height="2.3"/>
			</g>
			<g id="Stroke-324">
				<polygon class="st3" points="46.4,177.7 47.3,179.8 49.4,178.9 48.5,176.8 				"/>
			</g>
			<g id="Fill-326" class="st5">
				
					<rect x="45.3" y="173.8" transform="matrix(0.9205 -0.3908 0.3908 0.9205 -64.6666 32.0746)" class="st1" width="2.3" height="2.3"/>
			</g>
			<g id="Stroke-328">
				<polygon class="st3" points="45,174.3 45.9,176.4 48,175.5 47.1,173.4 				"/>
			</g>
			<g id="Fill-330" class="st5">
				
					<rect x="46.5" y="185.4" transform="matrix(0.9205 -0.3908 0.3908 0.9205 -69.1031 33.4654)" class="st1" width="2.3" height="2.3"/>
			</g>
			<g id="Stroke-332">
				<polygon class="st3" points="46.2,185.9 47.1,188 49.2,187.1 48.3,185 				"/>
			</g>
			<g id="Fill-334" class="st5">
				
					<rect x="45.1" y="182" transform="matrix(0.9205 -0.3908 0.3908 0.9205 -67.8826 32.6263)" class="st1" width="2.3" height="2.3"/>
			</g>
			<g id="Stroke-336">
				<polygon class="st3" points="44.7,182.5 45.6,184.6 47.7,183.7 46.8,181.6 				"/>
			</g>
			<g id="Fill-338" class="st5">
				
					<rect x="43.6" y="178.5" transform="matrix(0.9205 -0.3908 0.3908 0.9205 -66.6619 31.787)" class="st1" width="2.3" height="2.3"/>
			</g>
			<g id="Stroke-340">
				<polygon class="st3" points="43.3,179.1 44.2,181.2 46.3,180.3 45.4,178.2 				"/>
			</g>
			<g id="Fill-342" class="st5">
				
					<rect x="42.2" y="175.1" transform="matrix(0.9205 -0.3908 0.3908 0.9205 -65.4417 30.9482)" class="st1" width="2.3" height="2.3"/>
			</g>
			<g id="Stroke-344">
				<polygon class="st3" points="41.8,175.7 42.7,177.8 44.8,176.9 43.9,174.8 				"/>
			</g>
			<g id="Fill-346" class="st5">
				
					<rect x="43.4" y="186.7" transform="matrix(0.9205 -0.3908 0.3908 0.9205 -69.8776 32.3384)" class="st1" width="2.3" height="2.3"/>
			</g>
			<g id="Stroke-348">
				<polygon class="st3" points="43,187.2 43.9,189.4 46,188.5 45.1,186.4 				"/>
			</g>
			<g id="Fill-350" class="st5">
				
					<rect x="41.9" y="183.3" transform="matrix(0.9205 -0.3908 0.3908 0.9205 -68.6569 31.4992)" class="st1" width="2.3" height="2.3"/>
			</g>
			<g id="Stroke-352">
				<polygon class="st3" points="41.6,183.8 42.5,185.9 44.6,185 43.7,182.9 				"/>
			</g>
			<g id="Fill-354" class="st5">
				
					<rect x="40.5" y="179.9" transform="matrix(0.9205 -0.3908 0.3908 0.9205 -67.4363 30.6601)" class="st1" width="2.3" height="2.3"/>
			</g>
			<g id="Stroke-356">
				<polygon class="st3" points="40.1,180.4 41,182.5 43.1,181.6 42.2,179.5 				"/>
			</g>
			<g id="Fill-358" class="st5">
				
					<rect x="39" y="176.5" transform="matrix(0.9205 -0.3908 0.3908 0.9205 -66.2155 29.8207)" class="st1" width="2.3" height="2.3"/>
			</g>
			<g id="Stroke-360">
				<polygon class="st3" points="38.7,177 39.6,179.1 41.7,178.2 40.8,176.1 				"/>
			</g>
			<g id="Fill-362" class="st5">
				
					<rect x="40.2" y="188.1" transform="matrix(0.9205 -0.3908 0.3908 0.9205 -70.652 31.2115)" class="st1" width="2.3" height="2.3"/>
			</g>
			<g id="Stroke-364">
				<polygon class="st3" points="39.9,188.6 40.8,190.7 42.9,189.8 42,187.7 				"/>
			</g>
			<g id="Fill-366" class="st5">
				
					<rect x="38.8" y="184.6" transform="matrix(0.9205 -0.3908 0.3908 0.9205 -69.4315 30.3723)" class="st1" width="2.3" height="2.3"/>
			</g>
			<g id="Stroke-368">
				<polygon class="st3" points="38.4,185.2 39.3,187.3 41.4,186.4 40.5,184.3 				"/>
			</g>
			<g id="Fill-370" class="st5">
				
					<rect x="37.3" y="181.2" transform="matrix(0.9205 -0.3908 0.3908 0.9205 -68.2106 29.533)" class="st1" width="2.3" height="2.3"/>
			</g>
			<g id="Stroke-372">
				<polygon class="st3" points="37,181.8 37.9,183.9 40,183 39.1,180.9 				"/>
			</g>
			<g id="Fill-374" class="st5">
				
					<rect x="35.9" y="177.8" transform="matrix(0.9205 -0.3908 0.3908 0.9205 -66.9901 28.6938)" class="st1" width="2.3" height="2.3"/>
			</g>
			<g id="Stroke-376">
				<polygon class="st3" points="35.5,178.3 36.4,180.4 38.5,179.5 37.6,177.4 				"/>
			</g>
			<g id="Fill-378" class="st5">
				
					<rect x="45.2" y="164.8" transform="matrix(0.9205 -0.3908 0.3908 0.9205 -61.1612 31.324)" class="st1" width="2.3" height="2.3"/>
			</g>
			<g id="Stroke-380">
				<polygon class="st3" points="44.9,165.3 45.8,167.4 47.9,166.5 47,164.4 				"/>
			</g>
			<g id="Fill-382" class="st5">
				
					<rect x="43.8" y="161.4" transform="matrix(0.9205 -0.3908 0.3908 0.9205 -59.9407 30.4849)" class="st1" width="2.3" height="2.3"/>
			</g>
			<g id="Stroke-384">
				<polygon class="st3" points="43.4,161.9 44.3,164 46.4,163.1 45.5,161 				"/>
			</g>
			<g id="Fill-386" class="st5">
				
					<rect x="42.3" y="158" transform="matrix(0.9205 -0.3908 0.3908 0.9205 -58.7198 29.6456)" class="st1" width="2.3" height="2.3"/>
			</g>
			<g id="Stroke-388">
				<polygon class="st3" points="42,158.5 42.9,160.6 45,159.7 44.1,157.6 				"/>
			</g>
			<g id="Fill-390" class="st5">
				
					<rect x="40.9" y="154.5" transform="matrix(0.9205 -0.3908 0.3908 0.9205 -57.4997 28.8068)" class="st1" width="2.3" height="2.3"/>
			</g>
			<g id="Stroke-392">
				<polygon class="st3" points="40.5,155.1 41.4,157.2 43.5,156.3 42.6,154.2 				"/>
			</g>
			<g id="Fill-394" class="st5">
				
					<rect x="42.1" y="166.1" transform="matrix(0.9205 -0.3908 0.3908 0.9205 -61.9357 30.1971)" class="st1" width="2.3" height="2.3"/>
			</g>
			<g id="Stroke-396">
				<polygon class="st3" points="41.7,166.7 42.6,168.8 44.7,167.9 43.8,165.8 				"/>
			</g>
			<g id="Fill-398" class="st5">
				
					<rect x="40.6" y="162.7" transform="matrix(0.9205 -0.3908 0.3908 0.9205 -60.7151 29.358)" class="st1" width="2.3" height="2.3"/>
			</g>
			<g id="Stroke-400">
				<polygon class="st3" points="40.3,163.2 41.2,165.4 43.3,164.5 42.4,162.4 				"/>
			</g>
			<g id="Fill-402" class="st5">
				
					<rect x="39.2" y="159.3" transform="matrix(0.9205 -0.3908 0.3908 0.9205 -59.4944 28.5187)" class="st1" width="2.3" height="2.3"/>
			</g>
			<g id="Stroke-404">
				<polygon class="st3" points="38.8,159.8 39.7,161.9 41.8,161 40.9,158.9 				"/>
			</g>
			<g id="Fill-406" class="st5">
				
					<rect x="37.7" y="155.9" transform="matrix(0.9205 -0.3908 0.3908 0.9205 -58.2736 27.6794)" class="st1" width="2.3" height="2.3"/>
			</g>
			<g id="Stroke-408">
				<polygon class="st3" points="37.4,156.4 38.3,158.5 40.4,157.6 39.5,155.5 				"/>
			</g>
			<g id="Fill-410" class="st5">
				
					<rect x="38.9" y="167.5" transform="matrix(0.9205 -0.3908 0.3908 0.9205 -62.7101 29.0701)" class="st1" width="2.3" height="2.3"/>
			</g>
			<g id="Stroke-412">
				<polygon class="st3" points="38.6,168 39.5,170.1 41.6,169.2 40.7,167.1 				"/>
			</g>
			<g id="Fill-414" class="st5">
				
					<rect x="37.5" y="164" transform="matrix(0.9205 -0.3908 0.3908 0.9205 -61.4896 28.231)" class="st1" width="2.3" height="2.3"/>
			</g>
			<g id="Stroke-416">
				<polygon class="st3" points="37.1,164.6 38,166.7 40.1,165.8 39.2,163.7 				"/>
			</g>
			<g id="Fill-418" class="st5">
				
					<rect x="36" y="160.6" transform="matrix(0.9205 -0.3908 0.3908 0.9205 -60.2689 27.3918)" class="st1" width="2.3" height="2.3"/>
			</g>
			<g id="Stroke-420">
				<polygon class="st3" points="35.7,161.2 36.6,163.3 38.7,162.4 37.8,160.3 				"/>
			</g>
			<g id="Fill-422" class="st5">
				
					<rect x="34.6" y="157.2" transform="matrix(0.9205 -0.3908 0.3908 0.9205 -59.048 26.5524)" class="st1" width="2.3" height="2.3"/>
			</g>
			<g id="Stroke-424">
				<polygon class="st3" points="34.2,157.7 35.1,159.9 37.2,159 36.3,156.9 				"/>
			</g>
			<g id="Fill-426" class="st5">
				
					<rect x="35.8" y="168.8" transform="matrix(0.9205 -0.3908 0.3908 0.9205 -63.4847 27.9433)" class="st1" width="2.3" height="2.3"/>
			</g>
			<g id="Stroke-428">
				<polygon class="st3" points="35.4,169.3 36.3,171.4 38.4,170.6 37.5,168.5 				"/>
			</g>
			<g id="Fill-430" class="st5">
				
					<rect x="34.3" y="165.4" transform="matrix(0.9205 -0.3908 0.3908 0.9205 -62.2638 27.104)" class="st1" width="2.3" height="2.3"/>
			</g>
			<g id="Stroke-432">
				<polygon class="st3" points="34,165.9 34.9,168 37,167.1 36.1,165 				"/>
			</g>
			<g id="Fill-434" class="st5">
				
					<rect x="32.9" y="162" transform="matrix(0.9205 -0.3908 0.3908 0.9205 -61.0431 26.2647)" class="st1" width="2.3" height="2.3"/>
			</g>
			<g id="Stroke-436">
				<polygon class="st3" points="32.5,162.5 33.4,164.6 35.5,163.7 34.6,161.6 				"/>
			</g>
			<g id="Fill-438" class="st5">
				
					<rect x="31.4" y="158.6" transform="matrix(0.9205 -0.3908 0.3908 0.9205 -59.8225 25.4255)" class="st1" width="2.3" height="2.3"/>
			</g>
			<g id="Stroke-440">
				<polygon class="st3" points="31.1,159.1 32,161.2 34.1,160.3 33.2,158.2 				"/>
			</g>
			<g id="Fill-442" class="st5">
				
					<rect x="32.6" y="170.1" transform="matrix(0.9205 -0.3908 0.3908 0.9205 -64.2598 26.8168)" class="st1" width="2.3" height="2.3"/>
			</g>
			<g id="Stroke-444">
				<polygon class="st3" points="32.3,170.7 33.2,172.8 35.3,171.9 34.4,169.8 				"/>
			</g>
			<g id="Fill-446" class="st5">
				
					<rect x="31.2" y="166.7" transform="matrix(0.9205 -0.3908 0.3908 0.9205 -63.0391 25.9775)" class="st1" width="2.3" height="2.3"/>
			</g>
			<g id="Stroke-448">
				<polygon class="st3" points="30.8,167.3 31.7,169.4 33.8,168.5 32.9,166.4 				"/>
			</g>
			<g id="Fill-450" class="st5">
				
					<rect x="29.7" y="163.3" transform="matrix(0.9205 -0.3908 0.3908 0.9205 -61.8176 25.1377)" class="st1" width="2.3" height="2.3"/>
			</g>
			<g id="Stroke-452">
				<polygon class="st3" points="29.4,163.8 30.2,165.9 32.4,165.1 31.5,163 				"/>
			</g>
			<g id="Fill-454" class="st5">
				
					<rect x="28.3" y="159.9" transform="matrix(0.9205 -0.3908 0.3908 0.9205 -60.597 24.2986)" class="st1" width="2.3" height="2.3"/>
			</g>
			<g id="Stroke-456">
				<polygon class="st3" points="27.9,160.4 28.8,162.5 30.9,161.6 30,159.5 				"/>
			</g>
			<g id="Fill-458" class="st5">
				
					<rect x="37.6" y="146.9" transform="matrix(0.9205 -0.3908 0.3908 0.9205 -54.7683 26.9289)" class="st1" width="2.3" height="2.3"/>
			</g>
			<g id="Stroke-460">
				<polygon class="st3" points="37.3,147.4 38.2,149.5 40.3,148.6 39.4,146.5 				"/>
			</g>
			<g id="Fill-462" class="st5">
				
					<rect x="36.2" y="143.5" transform="matrix(0.9205 -0.3908 0.3908 0.9205 -53.5475 26.0896)" class="st1" width="2.3" height="2.3"/>
			</g>
			<g id="Stroke-464">
				<polygon class="st3" points="35.8,144 36.7,146.1 38.8,145.2 37.9,143.1 				"/>
			</g>
			<g id="Fill-466" class="st5">
				
					<rect x="34.7" y="140" transform="matrix(0.9205 -0.3908 0.3908 0.9205 -52.3268 25.2503)" class="st1" width="2.3" height="2.3"/>
			</g>
			<g id="Stroke-468">
				<polygon class="st3" points="34.4,140.6 35.3,142.7 37.4,141.8 36.5,139.7 				"/>
			</g>
			<g id="Fill-470" class="st5">
				
					<rect x="33.3" y="136.6" transform="matrix(0.9205 -0.3908 0.3908 0.9205 -51.1061 24.4111)" class="st1" width="2.3" height="2.3"/>
			</g>
			<g id="Stroke-472">
				<polygon class="st7" points="33.8,139.3 35.9,138.4 35,136.3 32.9,137.2 				"/>
			</g>
			<g id="Fill-474" class="st5">
				
					<rect x="34.5" y="148.2" transform="matrix(0.9205 -0.3908 0.3908 0.9205 -55.5426 25.8019)" class="st1" width="2.3" height="2.3"/>
			</g>
			<g id="Stroke-476">
				<polygon class="st3" points="34.1,148.8 35,150.9 37.1,150 36.2,147.9 				"/>
			</g>
			<g id="Fill-478" class="st5">
				
					<rect x="33" y="144.8" transform="matrix(0.9205 -0.3908 0.3908 0.9205 -54.3219 24.9626)" class="st1" width="2.3" height="2.3"/>
			</g>
			<g id="Stroke-480">
				<polygon class="st3" points="32.7,145.3 33.6,147.4 35.7,146.6 34.8,144.4 				"/>
			</g>
			<g id="Fill-482" class="st5">
				
					<rect x="31.6" y="141.4" transform="matrix(0.9205 -0.3908 0.3908 0.9205 -53.1012 24.1234)" class="st1" width="2.3" height="2.3"/>
			</g>
			<g id="Stroke-484">
				<polygon class="st3" points="31.2,141.9 32.1,144 34.2,143.1 33.3,141 				"/>
			</g>
			<g id="Fill-486" class="st5">
				
					<rect x="30.1" y="138" transform="matrix(0.9205 -0.3908 0.3908 0.9205 -51.8805 23.2841)" class="st1" width="2.3" height="2.3"/>
			</g>
			<g id="Stroke-488">
				<polygon class="st3" points="29.8,138.5 30.7,140.6 32.8,139.7 31.9,137.6 				"/>
			</g>
			<g id="Fill-490" class="st5">
				
					<rect x="31.3" y="149.6" transform="matrix(0.9205 -0.3908 0.3908 0.9205 -56.3177 24.6754)" class="st1" width="2.3" height="2.3"/>
			</g>
			<g id="Stroke-492">
				<polygon class="st3" points="31,150.1 31.9,152.2 34,151.3 33.1,149.2 				"/>
			</g>
			<g id="Fill-494" class="st5">
				
					<rect x="29.9" y="146.1" transform="matrix(0.9205 -0.3908 0.3908 0.9205 -55.097 23.8361)" class="st1" width="2.3" height="2.3"/>
			</g>
			<g id="Stroke-496">
				<polygon class="st3" points="29.5,146.7 30.4,148.8 32.5,147.9 31.6,145.8 				"/>
			</g>
			<g id="Fill-498" class="st5">
				
					<rect x="28.4" y="142.7" transform="matrix(0.9205 -0.3908 0.3908 0.9205 -53.8758 22.9965)" class="st1" width="2.3" height="2.3"/>
			</g>
			<g id="Stroke-500">
				<polygon class="st3" points="28.1,143.3 29,145.4 31.1,144.5 30.2,142.4 				"/>
			</g>
			<g id="Fill-502" class="st5">
				
					<rect x="27" y="139.3" transform="matrix(0.9205 -0.3908 0.3908 0.9205 -52.6551 22.1572)" class="st1" width="2.3" height="2.3"/>
			</g>
			<g id="Stroke-504">
				<polygon class="st3" points="26.6,139.8 27.5,141.9 29.6,141.1 28.7,139 				"/>
			</g>
			<g id="Fill-506" class="st5">
				
					<rect x="28.2" y="150.9" transform="matrix(0.9205 -0.3908 0.3908 0.9205 -57.0916 23.548)" class="st1" width="2.3" height="2.3"/>
			</g>
			<g id="Stroke-508">
				<polygon class="st3" points="27.8,151.4 28.7,153.5 30.8,152.7 29.9,150.5 				"/>
			</g>
			<g id="Fill-510" class="st5">
				
					<rect x="26.7" y="147.5" transform="matrix(0.9205 -0.3908 0.3908 0.9205 -55.8708 22.7087)" class="st1" width="2.3" height="2.3"/>
			</g>
			<g id="Stroke-512">
				<polygon class="st3" points="26.4,148 27.3,150.1 29.4,149.2 28.5,147.1 				"/>
			</g>
			<g id="Fill-514" class="st5">
				
					<rect x="25.3" y="144.1" transform="matrix(0.9205 -0.3908 0.3908 0.9205 -54.6501 21.8695)" class="st1" width="2.3" height="2.3"/>
			</g>
			<g id="Stroke-516">
				<polygon class="st3" points="24.9,144.6 25.8,146.7 27.9,145.8 27,143.7 				"/>
			</g>
			<g id="Fill-518" class="st5">
				
					<rect x="23.8" y="140.6" transform="matrix(0.9205 -0.3908 0.3908 0.9205 -53.4301 21.0307)" class="st1" width="2.3" height="2.3"/>
			</g>
			<g id="Stroke-520">
				<polygon class="st3" points="23.5,141.2 24.4,143.3 26.5,142.4 25.6,140.3 				"/>
			</g>
			<g id="Fill-522" class="st5">
				
					<rect x="25" y="152.2" transform="matrix(0.9205 -0.3908 0.3908 0.9205 -57.866 22.421)" class="st1" width="2.3" height="2.3"/>
			</g>
			<g id="Stroke-524">
				<polygon class="st3" points="24.7,152.8 25.5,154.9 27.7,154 26.8,151.9 				"/>
			</g>
			<g id="Fill-526" class="st5">
				
					<rect x="23.6" y="148.8" transform="matrix(0.9205 -0.3908 0.3908 0.9205 -56.6454 21.5818)" class="st1" width="2.3" height="2.3"/>
			</g>
			<g id="Stroke-528">
				<polygon class="st3" points="23.2,149.4 24.1,151.5 26.2,150.6 25.3,148.5 				"/>
			</g>
			<g id="Fill-530" class="st5">
				
					<rect x="22.1" y="145.4" transform="matrix(0.9205 -0.3908 0.3908 0.9205 -55.4246 20.7425)" class="st1" width="2.3" height="2.3"/>
			</g>
			<g id="Stroke-532">
				<polygon class="st3" points="21.8,145.9 22.6,148 24.7,147.2 23.9,145 				"/>
			</g>
			<g id="Fill-534" class="st5">
				
					<rect x="20.7" y="142" transform="matrix(0.9205 -0.3908 0.3908 0.9205 -54.2039 19.9033)" class="st1" width="2.3" height="2.3"/>
			</g>
			<g id="Stroke-536">
				<polygon class="st3" points="20.3,142.5 21.2,144.6 23.3,143.7 22.4,141.6 				"/>
			</g>
			<g id="Fill-538">
				<path class="st2" d="M129,189.4c-1.6-3.8-2.3-7.2-1.5-7.6c0.8-0.3,2.8,2.5,4.4,6.3c1.6,3.8,2.3,7.2,1.5,7.6
					S130.6,193.3,129,189.4z"/>
			</g>
			<g id="Stroke-540">
				<path class="st1" d="M133.2,196.6c-0.9,0-1.8-1.1-2.4-2c-0.9-1.2-1.8-3-2.6-4.9l0,0c-0.8-1.8-3.1-7.7-1.1-8.6
					c2-0.9,4.7,4.9,5.5,6.7c0.8,1.8,3.1,7.7,1.1,8.6C133.5,196.6,133.4,196.6,133.2,196.6z M129.7,189.1c1.3,3,2.5,4.8,3.2,5.5
					c0-1-0.5-3.2-1.8-6.1c-1.3-3-2.5-4.8-3.2-5.5C128,184,128.5,186.1,129.7,189.1L129.7,189.1z"/>
			</g>
			<g id="Fill-542">
				<path class="st2" d="M135.4,186.7c-3.2-7.7-4.6-14.4-3-15.1c1.6-0.7,5.6,5,8.8,12.6c3.2,7.7,4.6,14.4,3,15.1
					C142.6,200,138.7,194.4,135.4,186.7z"/>
			</g>
			<g id="Stroke-544">
				<path class="st1" d="M144,200.2c-2.9,0-7.1-8.1-9.3-13.2l0,0c-1.6-3.8-2.8-7.4-3.4-10.3c-0.7-3.4-0.4-5.3,0.8-5.8
					c1.2-0.5,2.8,0.6,4.8,3.5c1.7,2.4,3.5,5.8,5.1,9.6c2.3,5.4,5.4,14.9,2.5,16.2C144.3,200.2,144.2,200.2,144,200.2z M136.2,186.4
					c3.5,8.2,6.8,12.3,7.8,12.2c0.6-0.6,0.1-5.8-3.4-14c-3.5-8.1-6.8-12.2-7.8-12.2c0,0,0,0,0,0C132.1,173,132.7,178.2,136.2,186.4
					L136.2,186.4z"/>
			</g>
			<g id="Fill-546" class="st8">
				
					<ellipse transform="matrix(0.9205 -0.3908 0.3908 0.9205 -58.6937 72.8781)" class="st2" cx="149.7" cy="180.6" rx="4.3" ry="20.2"/>
			</g>
			<g id="Stroke-548">
				<path class="st1" d="M157.2,200.1c-3.7,0-9.5-11.2-12.2-17.5c-2.1-5-3.7-9.9-4.5-13.8c-0.9-4.4-0.6-6.9,0.9-7.5
					c3.7-1.6,10,10.7,12.9,17.3c2.1,5,3.7,9.9,4.5,13.8c0.9,4.4,0.6,6.9-0.9,7.5C157.7,200,157.5,200.1,157.2,200.1z M142.3,162.8
					c-0.1,0-0.1,0-0.1,0c-0.3,0.1-0.8,1.4,0,5.7c0.7,3.8,2.3,8.5,4.4,13.5c4.9,11.5,9.7,17,10.7,16.5c0.3-0.1,0.8-1.4,0-5.7
					c-0.7-3.8-2.3-8.5-4.4-13.5C148.2,168.2,143.6,162.8,142.3,162.8z"/>
			</g>
			<g id="Oval-80-Copy-3" class="st9">
				<g class="st10">
					<path class="st1" d="M64.7,89.6c-2.5-1.1-4.2-2.5-3.9-3.3c0.3-0.8,2.4-0.7,5.1,0c1.1-2.5,2.5-4.2,3.2-3.9s0.7,2.4-0.1,5.1
						c2.5,1.1,4.2,2.5,3.9,3.3c-0.3,0.8-2.4,0.7-5.1,0c-1.1,2.5-2.4,4.1-3.2,3.8C63.9,94.3,64,92.2,64.7,89.6z"/>
				</g>
			</g>
			<g id="Star-1-Copy-16" class="st10">
				<path class="st1" d="M118.8,329.1l-0.4,0.4c-0.9,1-2.4,1.1-3.4,0.2c-0.4-0.4-0.7-0.8-0.8-1.4l-0.1-0.5l-0.5-0.2
					c-1.2-0.6-1.8-2-1.2-3.2c0.2-0.5,0.6-0.9,1.1-1.1l0.5-0.2l0.1-0.5c0.1-1.3,1.3-2.3,2.7-2.1c0.5,0.1,1,0.3,1.4,0.7l0.4,0.4
					l0.5-0.1c1.3-0.3,2.6,0.6,2.9,1.9c0.1,0.5,0,1.1-0.2,1.5l-0.2,0.5l0.3,0.5c0.7,1.2,0.3,2.6-0.9,3.3c-0.5,0.3-1,0.4-1.5,0.3
					L118.8,329.1z"/>
			</g>
			<g id="Star-1-Copy-18" class="st10">
				<path class="st1" d="M433,120L433,120c-0.7,0.4-1.7,0.2-2.1-0.5c-0.2-0.3-0.2-0.6-0.2-1l0,0c-0.6-0.6-0.7-1.5-0.1-2.1
					c0.2-0.3,0.5-0.4,0.8-0.5l0,0l0,0c0.3-0.8,1.2-1.1,2-0.8c0.3,0.1,0.6,0.4,0.7,0.7l0,0c0.8,0.1,1.5,0.8,1.4,1.7
					c0,0.3-0.2,0.6-0.4,0.9l0,0c0.2,0.8-0.3,1.6-1.1,1.8C433.6,120.2,433.3,120.1,433,120L433,120z"/>
			</g>
			<g id="Star-1-Copy-19" class="st10">
				<path class="st1" d="M98.3,38.5l-0.8,0.1c-1.3,0.2-2.6-0.7-2.8-2c-0.1-0.5,0-1.1,0.3-1.5l0.4-0.7L95,33.6
					c-0.6-1.2-0.1-2.7,1.1-3.3c0.5-0.2,1-0.3,1.5-0.2l0.8,0.2l0.6-0.6c1-0.9,2.5-0.9,3.4,0c0.4,0.4,0.6,0.9,0.7,1.4l0.1,0.8l0.7,0.4
					c1.2,0.6,1.7,2.1,1,3.3c-0.2,0.5-0.6,0.9-1.1,1.1l-0.8,0.4l-0.1,0.8c-0.2,1.3-1.5,2.2-2.8,2c-0.5-0.1-1-0.3-1.4-0.7L98.3,38.5z"
					/>
			</g>
			<g id="Star-1-Copy-20" class="st10">
				<path class="st1" d="M396.6,305.7l-0.5-0.1c-1.3-0.3-2.1-1.7-1.8-3c0.1-0.5,0.4-1,0.9-1.3l0.4-0.3l0-0.5
					c-0.1-1.3,0.9-2.5,2.3-2.6c0.5,0,1.1,0.1,1.5,0.4l0.5,0.3l0.5-0.2c1.2-0.5,2.7,0.1,3.2,1.4c0.2,0.5,0.2,1,0.1,1.6l-0.1,0.5
					l0.4,0.4c0.9,1,0.7,2.6-0.3,3.4c-0.4,0.3-0.9,0.5-1.5,0.6l-0.5,0l-0.3,0.5c-0.7,1.1-2.2,1.5-3.4,0.8c-0.5-0.3-0.8-0.7-1-1.2
					L396.6,305.7z"/>
			</g>
			<g id="Star-1-Copy-21" class="st10">
				<path class="st1" d="M440.3,146.3L440.3,146.3c-0.6,0.5-1.6,0.4-2.1-0.2c-0.2-0.3-0.3-0.6-0.4-0.9l0,0c-0.7-0.4-0.9-1.4-0.5-2.1
					c0.2-0.3,0.4-0.5,0.8-0.6l0,0l0,0c0.2-0.8,1-1.3,1.9-1.1c0.3,0.1,0.6,0.3,0.8,0.5l0,0c0.8-0.1,1.6,0.6,1.6,1.4
					c0,0.3-0.1,0.7-0.3,0.9l0,0c0.3,0.8-0.1,1.7-0.9,2C440.9,146.4,440.6,146.4,440.3,146.3L440.3,146.3z"/>
			</g>
			<g id="Oval-8-Copy-2" class="st11">
				<ellipse class="st1" cx="244.6" cy="161.7" rx="58.9" ry="58.9"/>
			</g>
			<g id="_xFF1F_">
				<path class="st6" d="M245.3,141.1c-4.2,0-7.5,1.3-9.8,3.8c-2.3,2.4-3.4,5.7-3.4,9.8h4.6c0-2.9,0.6-5.1,1.9-6.7
					c1.4-1.9,3.6-2.9,6.5-2.9c2.4,0,4.4,0.6,5.7,2c1.3,1.3,2,3.1,2,5.4c0,1.6-0.6,3.1-1.7,4.6c-0.3,0.5-1,1.2-2,2.1
					c-3.1,2.8-5.1,5-5.9,6.8c-0.7,1.5-1,3.1-1,5.1v1.3h4.7v-1.3c0-1.6,0.3-3,1.1-4.3c0.6-1,1.5-2.1,2.7-3.2c2.6-2.3,4.1-3.8,4.7-4.5
					c1.5-1.9,2.2-4.2,2.2-6.8c0-3.5-1.1-6.2-3.3-8.2C252.1,142.1,249.1,141.1,245.3,141.1z M244.5,176.6c-1,0-1.8,0.3-2.5,1
					c-0.7,0.6-1,1.5-1,2.4s0.3,1.8,1,2.5c0.7,0.6,1.5,1,2.5,1s1.8-0.3,2.5-1s1-1.5,1-2.5c0-1-0.3-1.8-1-2.4
					C246.3,176.8,245.5,176.6,244.5,176.6z"/>
			</g>
			<g id="Oval-8-Copy-2_1_">
				<path class="st12" d="M223.3,133.1c5.8-3.4,16.4-7.3,13-13.1s-15.7-5-21.5-1.6c-5.8,3.4-12,13.2-8.7,19S217.4,136.5,223.3,133.1
					"/>
			</g>
			<g id="Oval-10-Copy">
				<path class="st12" d="M249.7,119.8c2.7,0,4.9-2.2,4.9-4.9c0-2.7-2.2-4.9-4.9-4.9s-4.9,2.2-4.9,4.9
					C244.8,117.6,247,119.8,249.7,119.8z"/>
			</g>
		</g>
	</g>
</g>
</svg>
