<svg xmlns="http://www.w3.org/2000/svg" viewBox="0 0 208.5 122.5"><defs><style>.cls-1,.cls-3{fill:none;stroke-miterlimit:10;stroke-width:0.5px;}.cls-1{stroke:#009bf9;opacity:0.64;}.cls-2{fill:#009bf9;opacity:0.1;}.cls-3{stroke:#5fd8ff;}</style></defs><title>资源 16</title><g id="图层_2" data-name="图层 2"><g id="图层_1-2" data-name="图层 1"><polygon class="cls-1" points="198.52 0.25 9.98 0.25 0.25 9.98 0.25 112.52 9.98 122.25 198.52 122.25 208.25 112.52 208.25 9.98 198.52 0.25"/><polygon class="cls-2" points="198.52 0.25 9.98 0.25 0.25 9.98 0.25 112.52 9.98 122.25 198.52 122.25 208.25 112.52 208.25 9.98 198.52 0.25"/><polyline class="cls-3" points="30.75 1.75 10.48 1.75 2.37 9.87"/><line class="cls-3" x1="177.25" y1="1.75" x2="157.75" y2="1.75"/><polyline class="cls-3" points="185.25 122.23 198.72 122.23 208.25 112.7 208.25 98.25"/><polyline class="cls-3" points="0.35 99.25 0.35 112.52 10.08 122.25 18.85 122.25"/></g></g></svg>